<?xml version="1.0" encoding="iso-8859-1"?>
<!-- Uploaded to: SVG Repo, www.svgrepo.com, Generator: SVG Repo Mixer Tools -->
<!DOCTYPE svg PUBLIC "-//W3C//DTD SVG 1.1//EN" "http://www.w3.org/Graphics/SVG/1.1/DTD/svg11.dtd">
<svg height="800px" width="800px" version="1.1" id="Capa_1" xmlns="http://www.w3.org/2000/svg" xmlns:xlink="http://www.w3.org/1999/xlink" 
	 viewBox="0 0 136.74 136.74" xml:space="preserve">
<g>
	<path style="fill-rule:evenodd;clip-rule:evenodd;fill:#FFDECC;" d="M56.631,83.327C30.68,94.704,22.895,100.77,19.818,103.493
		c-4.742,4.196-7.365,19.838-10.162,33.12h58.714h58.715c-2.797-13.281-5.42-28.923-10.162-33.12
		c-3.076-2.723-10.576-8.633-36.528-20.01L56.631,83.327z"/>
	<path style="fill-rule:evenodd;clip-rule:evenodd;fill:#FFDECC;" d="M80.971,60.648v28.767c-6.931,8.488-18.272,8.194-25.201,0
		V60.648C55.77,45.115,80.971,45.115,80.971,60.648z"/>
	<path style="fill-rule:evenodd;clip-rule:evenodd;fill:#F7C5AA;" d="M80.971,60.648v19.26c-4.769,3.476-9.364,5.423-12.601,5.423
		c-3.236,0-7.833-1.947-12.601-5.422v-19.26C55.77,45.115,80.971,45.115,80.971,60.648z"/>
	
		<ellipse transform="matrix(-0.3128 -0.9498 0.9498 -0.3128 8.7586 94.2022)" style="fill-rule:evenodd;clip-rule:evenodd;fill:#FFDECC;" cx="38.458" cy="43.933" rx="7.317" ry="4.23"/>
	
		<ellipse transform="matrix(0.3128 -0.9498 0.9498 0.3128 26.1455 124.0025)" style="fill-rule:evenodd;clip-rule:evenodd;fill:#FFDECC;" cx="98.767" cy="43.933" rx="7.317" ry="4.231"/>
	<path style="fill-rule:evenodd;clip-rule:evenodd;fill:#FFDECC;" d="M68.369,9.002c-42.291,0-27.082,51.101-24.319,55.169
		c3.046,4.486,17.487,16.377,24.319,16.377c6.834,0,21.273-11.89,24.32-16.377C95.453,60.103,110.661,9.002,68.369,9.002z"/>
	<path style="fill-rule:evenodd;clip-rule:evenodd;fill:#FFC65D;" d="M58.797,20.534c-7.098-4.698-16.197,13.01-18.639,27.403
		c-2.025-12.258,0.185-38.821,0.826-44.644c0.491-4.476,54.273-4.306,54.771,0c0.672,5.819,3.021,30.032,0.995,42.459
		c-2.61-11.705-11.828-30.095-18.809-25.218C72.127,24.596,64.619,24.387,58.797,20.534z"/>
	<path style="fill-rule:evenodd;clip-rule:evenodd;fill:#F7C5AA;" d="M54.811,59.7c9.258,3.581,19.715,3.231,27.119,0
		C78.97,67.362,59.03,67.424,54.811,59.7z"/>
	<path style="fill-rule:evenodd;clip-rule:evenodd;fill:#F7C5AA;" d="M57.554,58.196c-1.705,1.418-2.774,3.497-2.947,5.293
		C53.436,61.516,55.591,57.58,57.554,58.196z"/>
	<path style="fill-rule:evenodd;clip-rule:evenodd;fill:#F7C5AA;" d="M78.996,58.196c1.705,1.418,2.773,3.497,2.948,5.293
		C83.115,61.516,80.959,57.58,78.996,58.196z"/>
	<path style="fill-rule:evenodd;clip-rule:evenodd;fill:#B34D1F;" d="M46.865,87.878c-18.249,8.568-24.396,13.396-27.048,15.742
		c-4.742,4.196-7.365,19.838-10.163,33.12h58.715h58.716c-2.798-13.282-5.421-28.924-10.163-33.12
		c-2.562-2.268-8.193-6.745-24.987-14.748c-0.12,0.124-0.285,0.211-0.358,0.372c-4.574,10.016-12.642,15.726-21.017,18.57
		c-11.609-2.276-21.578-11.275-23.125-19.149C47.245,88.397,47.055,88.141,46.865,87.878z"/>
	<path style="fill-rule:evenodd;clip-rule:evenodd;fill:#913E17;" d="M16.84,108.196c-2.986,6.728-5.035,18.333-7.185,28.543H33.49
		C32.957,120.081,32.928,111.22,16.84,108.196z"/>
	<path style="fill-rule:evenodd;clip-rule:evenodd;fill:#913E17;" d="M119.9,108.196c2.987,6.728,5.035,18.333,7.186,28.543h-23.836
		C103.781,120.081,103.812,111.22,119.9,108.196z"/>
	<path style="fill-rule:evenodd;clip-rule:evenodd;fill:#913E17;" d="M46.865,87.878c-1.727,0.811-3.345,1.588-4.861,2.332
		c4.413,9.193,12.479,18.455,28.555,22.099c13.963-4.205,21.291-12.753,25.506-21.43c-1.297-0.643-2.67-1.312-4.13-2.007
		c-0.12,0.124-0.285,0.211-0.358,0.372c-4.574,10.016-12.642,15.726-21.017,18.57c-11.609-2.276-21.578-11.275-23.125-19.149
		C47.245,88.397,47.055,88.141,46.865,87.878z"/>
</g>
</svg>