<?xml version="1.0" encoding="iso-8859-1"?>
<!-- Uploaded to: SVG Repo, www.svgrepo.com, Generator: SVG Repo Mixer Tools -->
<svg height="800px" width="800px" version="1.1" id="Layer_1" xmlns="http://www.w3.org/2000/svg" xmlns:xlink="http://www.w3.org/1999/xlink" 
	 viewBox="0 0 508.698 508.698" xml:space="preserve">
<path style="fill:#608287;" d="M488.648,508.698v-91.55c0-28.482-21.023-53.234-50.861-60.016l-183.438-43.401L70.91,357.132
	c-29.838,7.121-50.861,31.873-50.861,60.016v91.55H488.648z"/>
<path style="fill:#EEB490;" d="M352.002,336.788L352.002,336.788c0,0-37.298-12.546-37.298-28.821c0-16.276,0-27.126,0-27.126
	h-60.355h-60.355c0,0,0,10.85,0,27.126c0,16.275-37.298,28.821-37.298,28.821s0,0,0,0.339c0,34.585,43.74,62.389,97.653,62.389
	C308.261,399.177,352.002,371.373,352.002,336.788L352.002,336.788z"/>
<g>
	<path style="fill:#56545F;" d="M161.443,91.977c0,0-38.315,26.787,9.833,92.228l55.269-96.975L161.443,91.977z"/>
	<path style="fill:#56545F;" d="M176.023,109.27c0,0-24.413-12.207-17.293-51.878c7.46-39.672,81.377-89.176,156.991-30.177
		s21.362,133.595,21.362,133.595L176.023,109.27z"/>
</g>
<g>
	<circle style="fill:#EEB490;" cx="338.778" cy="179.797" r="27.465"/>
	<circle style="fill:#EEB490;" cx="169.92" cy="179.797" r="27.465"/>
</g>
<path style="fill:#FACCB4;" d="M292.664,100.115h-76.63c-24.752,0-44.758,20.005-44.758,44.758v84.429
	c0,46.453,37.976,85.785,84.429,84.768c45.097-1.017,81.377-37.637,81.377-83.073v-86.124
	C337.422,120.12,317.416,100.115,292.664,100.115z"/>
</svg>